solid ModelTest
   facet normal 0.000000e+000 0.000000e+000 -1.000000e+000
      outer loop
         vertex 8.116677e+002 1.505578e+002 3.023148e+000
         vertex 8.220660e+002 1.050241e+002 3.023148e+000
         vertex 7.170660e+002 1.050000e+002 3.023148e+000
      endloop
   endfacet
   facet normal 0.000000e+000 0.000000e+000 -1.000000e+000
      outer loop
         vertex 7.170660e+002 1.050000e+002 3.023148e+000
         vertex 6.120660e+002 1.050241e+002 3.023148e+000
         vertex 6.224643e+002 1.505578e+002 3.023148e+000
      endloop
   endfacet
   facet normal 0.000000e+000 0.000000e+000 -1.000000e+000
      outer loop
         vertex 7.825324e+002 1.870923e+002 3.023148e+000
         vertex 8.116677e+002 1.505578e+002 3.023148e+000
         vertex 7.404307e+002 2.073674e+002 3.023148e+000
      endloop
   endfacet
   facet normal 0.000000e+000 0.000000e+000 -1.000000e+000
      outer loop
         vertex 7.404307e+002 2.073674e+002 3.023148e+000
         vertex 8.116677e+002 1.505578e+002 3.023148e+000
         vertex 7.170660e+002 1.050000e+002 3.023148e+000
      endloop
   endfacet
   facet normal 0.000000e+000 0.000000e+000 -1.000000e+000
      outer loop
         vertex 7.404307e+002 2.073674e+002 3.023148e+000
         vertex 7.170660e+002 1.050000e+002 3.023148e+000
         vertex 6.937013e+002 2.073674e+002 3.023148e+000
      endloop
   endfacet
   facet normal 0.000000e+000 0.000000e+000 -1.000000e+000
      outer loop
         vertex 6.937013e+002 2.073674e+002 3.023148e+000
         vertex 7.170660e+002 1.050000e+002 3.023148e+000
         vertex 6.224643e+002 1.505578e+002 3.023148e+000
      endloop
   endfacet
   facet normal 0.000000e+000 0.000000e+000 -1.000000e+000
      outer loop
         vertex 6.937013e+002 2.073674e+002 3.023148e+000
         vertex 6.224643e+002 1.505578e+002 3.023148e+000
         vertex 6.515996e+002 1.870923e+002 3.023148e+000
      endloop
   endfacet
   facet normal 1.000000e+000 0.000000e+000 0.000000e+000
      outer loop
         vertex 1.434132e+003 1.050000e+002 0.000000e+000
         vertex 1.434132e+003 1.062500e+002 6.191826e+000
         vertex 1.434132e+003 1.025000e+002 1.238346e+001
      endloop
   endfacet
   facet normal 1.000000e+000 0.000000e+000 0.000000e+000
      outer loop
         vertex 1.434132e+003 1.025000e+002 1.238346e+001
         vertex 1.434132e+003 1.062500e+002 6.191826e+000
         vertex 1.434132e+003 1.075000e+002 1.238346e+001
      endloop
   endfacet
   facet normal 1.000000e+000 0.000000e+000 0.000000e+000
      outer loop
         vertex 1.434132e+003 1.025000e+002 1.238346e+001
         vertex 1.434132e+003 1.075000e+002 1.238346e+001
         vertex 1.434132e+003 1.012500e+002 1.857529e+001
      endloop
   endfacet
   facet normal 1.000000e+000 0.000000e+000 0.000000e+000
      outer loop
         vertex 1.434132e+003 1.012500e+002 1.857529e+001
         vertex 1.434132e+003 1.075000e+002 1.238346e+001
         vertex 1.434132e+003 1.100000e+002 2.476692e+001
      endloop
   endfacet
   facet normal 1.000000e+000 0.000000e+000 0.000000e+000
      outer loop
         vertex 1.434132e+003 1.012500e+002 1.857529e+001
         vertex 1.434132e+003 1.100000e+002 2.476692e+001
         vertex 1.434132e+003 9.999999e+001 2.476692e+001
      endloop
   endfacet
   facet normal 1.000000e+000 0.000000e+000 0.000000e+000
      outer loop
         vertex 1.434132e+003 9.999999e+001 2.476692e+001
         vertex 1.434132e+003 1.100000e+002 2.476692e+001
         vertex 1.434132e+003 1.087500e+002 3.095875e+001
      endloop
   endfacet
   facet normal 1.000000e+000 0.000000e+000 0.000000e+000
      outer loop
         vertex 1.434132e+003 9.999999e+001 2.476692e+001
         vertex 1.434132e+003 1.087500e+002 3.095875e+001
         vertex 1.434132e+003 1.025000e+002 3.715038e+001
      endloop
   endfacet
   facet normal 1.000000e+000 0.000000e+000 0.000000e+000
      outer loop
         vertex 1.434132e+003 1.025000e+002 3.715038e+001
         vertex 1.434132e+003 1.087500e+002 3.095875e+001
         vertex 1.434132e+003 1.075000e+002 3.715038e+001
      endloop
   endfacet
   facet normal 1.000000e+000 0.000000e+000 0.000000e+000
      outer loop
         vertex 1.434132e+003 1.025000e+002 3.715038e+001
         vertex 1.434132e+003 1.075000e+002 3.715038e+001
         vertex 1.434132e+003 1.037500e+002 4.334202e+001
      endloop
   endfacet
   facet normal 1.000000e+000 0.000000e+000 0.000000e+000
      outer loop
         vertex 1.434132e+003 1.037500e+002 4.334202e+001
         vertex 1.434132e+003 1.075000e+002 3.715038e+001
         vertex 1.434132e+003 1.050000e+002 4.953384e+001
      endloop
   endfacet
   facet normal 8.249616e-002 -9.949888e-001 5.649581e-002
      outer loop
         vertex 8.218040e+002 9.758663e+001 8.343284e+002
         vertex 8.208562e+002 9.181229e+001 7.295895e+002
         vertex 1.124559e+003 1.010517e+002 4.509121e+002
      endloop
   endfacet
   facet normal 1.987351e-001 -9.680536e-001 1.528939e-001
      outer loop
         vertex 1.434132e+003 1.025000e+002 3.715038e+001
         vertex 1.434132e+003 1.037500e+002 4.334202e+001
         vertex 1.279345e+003 9.980173e+001 2.119165e+002
      endloop
   endfacet
   facet normal 1.504066e-001 -9.825936e-001 1.090311e-001
      outer loop
         vertex 1.279345e+003 9.980173e+001 2.119165e+002
         vertex 1.434132e+003 1.037500e+002 4.334202e+001
         vertex 1.124559e+003 1.010517e+002 4.509121e+002
      endloop
   endfacet
   facet normal 9.182689e-002 -9.936405e-001 6.516380e-002
      outer loop
         vertex 1.279345e+003 9.980173e+001 2.119165e+002
         vertex 1.124559e+003 1.010517e+002 4.509121e+002
         vertex 1.124559e+003 9.710346e+001 3.866825e+002
      endloop
   endfacet
   facet normal 8.466861e-002 -9.946723e-001 5.880794e-002
      outer loop
         vertex 1.124559e+003 9.710346e+001 3.866825e+002
         vertex 1.124559e+003 1.010517e+002 4.509121e+002
         vertex 8.208562e+002 9.181229e+001 7.295895e+002
      endloop
   endfacet
   facet normal 8.014949e-002 -9.951807e-001 5.649411e-002
      outer loop
         vertex 1.124559e+003 9.710346e+001 3.866825e+002
         vertex 8.208562e+002 9.181229e+001 7.295895e+002
         vertex 8.186781e+002 7.854263e+001 4.888951e+002
      endloop
   endfacet
   facet normal 8.440822e-002 -9.948286e-001 5.649146e-002
      outer loop
         vertex 8.220660e+002 1.050000e+002 9.700999e+002
         vertex 8.218040e+002 9.758663e+001 8.343284e+002
         vertex 1.124559e+003 1.050000e+002 5.151417e+002
      endloop
   endfacet
   facet normal 8.694965e-002 -9.944759e-001 5.879999e-002
      outer loop
         vertex 1.124559e+003 1.050000e+002 5.151417e+002
         vertex 8.218040e+002 9.758663e+001 8.343284e+002
         vertex 1.124559e+003 1.010517e+002 4.509121e+002
      endloop
   endfacet
   facet normal 9.702580e-002 -9.931486e-001 6.512931e-002
      outer loop
         vertex 1.124559e+003 1.050000e+002 5.151417e+002
         vertex 1.124559e+003 1.010517e+002 4.509121e+002
         vertex 1.279345e+003 1.050000e+002 2.823378e+002
      endloop
   endfacet
   facet normal 1.537485e-001 -9.820811e-001 1.089873e-001
      outer loop
         vertex 1.279345e+003 1.050000e+002 2.823378e+002
         vertex 1.124559e+003 1.010517e+002 4.509121e+002
         vertex 1.434132e+003 1.037500e+002 4.334202e+001
      endloop
   endfacet
   facet normal 2.194338e-001 -9.637080e-001 1.520380e-001
      outer loop
         vertex 1.279345e+003 1.050000e+002 2.823378e+002
         vertex 1.434132e+003 1.037500e+002 4.334202e+001
         vertex 1.434132e+003 1.050000e+002 4.953384e+001
      endloop
   endfacet
   facet normal 8.044451e-002 -9.950585e-001 5.820103e-002
      outer loop
         vertex 8.186781e+002 7.854263e+001 4.888951e+002
         vertex 1.075599e+003 8.749999e+001 2.951450e+002
         vertex 1.124559e+003 9.710346e+001 3.866825e+002
      endloop
   endfacet
   facet normal 8.219010e-002 -9.947769e-001 6.052880e-002
      outer loop
         vertex 1.124559e+003 9.710346e+001 3.866825e+002
         vertex 1.075599e+003 8.749999e+001 2.951450e+002
         vertex 1.124559e+003 8.920694e+001 2.582233e+002
      endloop
   endfacet
   facet normal 8.905543e-002 -9.938918e-001 6.517930e-002
      outer loop
         vertex 1.124559e+003 9.710346e+001 3.866825e+002
         vertex 1.124559e+003 8.920694e+001 2.582233e+002
         vertex 1.279345e+003 9.980173e+001 2.119165e+002
      endloop
   endfacet
   facet normal 9.024511e-002 -9.935095e-001 6.924337e-002
      outer loop
         vertex 1.279345e+003 9.980173e+001 2.119165e+002
         vertex 1.124559e+003 8.920694e+001 2.582233e+002
         vertex 1.279345e+003 9.460347e+001 1.414951e+002
      endloop
   endfacet
   facet normal 1.418117e-001 -9.833729e-001 1.134332e-001
      outer loop
         vertex 1.279345e+003 9.980173e+001 2.119165e+002
         vertex 1.279345e+003 9.460347e+001 1.414951e+002
         vertex 1.434132e+003 1.025000e+002 3.715038e+001
      endloop
   endfacet
   facet normal 1.686506e-001 -9.735717e-001 1.539970e-001
      outer loop
         vertex 1.434132e+003 1.025000e+002 3.715038e+001
         vertex 1.279345e+003 9.460347e+001 1.414951e+002
         vertex 1.434132e+003 9.999999e+001 2.476692e+001
      endloop
   endfacet
   facet normal -2.366677e-004 -9.984472e-001 -5.570575e-002
      outer loop
         vertex 8.220660e+002 1.049759e+002 3.023148e+000
         vertex 7.170660e+002 1.050000e+002 3.023148e+000
         vertex 1.075599e+003 1.050000e+002 1.511574e+000
      endloop
   endfacet
   facet normal -1.229385e-003 -9.984261e-001 -5.607084e-002
      outer loop
         vertex 8.220660e+002 1.049759e+002 3.023148e+000
         vertex 1.075599e+003 1.050000e+002 1.511574e+000
         vertex 8.209825e+002 9.181244e+001 2.448713e+002
      endloop
   endfacet
   facet normal -5.124275e-002 -9.865170e-001 -1.554300e-001
      outer loop
         vertex 1.434132e+003 1.025000e+002 1.238346e+001
         vertex 1.434132e+003 1.012500e+002 1.857529e+001
         vertex 1.254865e+003 9.937500e+001 8.035583e+001
      endloop
   endfacet
   facet normal -3.446836e-002 -9.934070e-001 -1.093364e-001
      outer loop
         vertex 1.254865e+003 9.937500e+001 8.035583e+001
         vertex 1.434132e+003 1.012500e+002 1.857529e+001
         vertex 1.075599e+003 9.187499e+001 2.217367e+002
      endloop
   endfacet
   facet normal -7.368116e-003 -9.979764e-001 -6.315744e-002
      outer loop
         vertex 1.254865e+003 9.937500e+001 8.035583e+001
         vertex 1.075599e+003 9.187499e+001 2.217367e+002
         vertex 1.075599e+003 9.625000e+001 1.483284e+002
      endloop
   endfacet
   facet normal -7.392818e-002 -9.849589e-001 -1.561751e-001
      outer loop
         vertex 1.434132e+003 1.012500e+002 1.857529e+001
         vertex 1.434132e+003 9.999999e+001 2.476692e+001
         vertex 1.279345e+003 9.460347e+001 1.414951e+002
      endloop
   endfacet
   facet normal -3.827499e-002 -9.931540e-001 -1.103637e-001
      outer loop
         vertex 1.434132e+003 1.012500e+002 1.857529e+001
         vertex 1.279345e+003 9.460347e+001 1.414951e+002
         vertex 1.075599e+003 9.187499e+001 2.217367e+002
      endloop
   endfacet
   facet normal -1.327410e-002 -9.978089e-001 -6.481647e-002
      outer loop
         vertex 1.075599e+003 9.187499e+001 2.217367e+002
         vertex 1.279345e+003 9.460347e+001 1.414951e+002
         vertex 1.124559e+003 8.920694e+001 2.582233e+002
      endloop
   endfacet
   facet normal -9.713653e-003 -9.981444e-001 -6.011065e-002
      outer loop
         vertex 1.075599e+003 9.187499e+001 2.217367e+002
         vertex 1.124559e+003 8.920694e+001 2.582233e+002
         vertex 1.075599e+003 8.749999e+001 2.951450e+002
      endloop
   endfacet
   facet normal -1.970371e-002 -9.876148e-001 -1.556557e-001
      outer loop
         vertex 1.434132e+003 1.050000e+002 0.000000e+000
         vertex 1.434132e+003 1.025000e+002 1.238346e+001
         vertex 1.254865e+003 1.050000e+002 7.558823e-001
      endloop
   endfacet
   facet normal -2.254363e-002 -9.933290e-001 -1.130889e-001
      outer loop
         vertex 1.254865e+003 1.050000e+002 7.558823e-001
         vertex 1.434132e+003 1.025000e+002 1.238346e+001
         vertex 1.254865e+003 9.937500e+001 8.035583e+001
      endloop
   endfacet
   facet normal -3.295562e-003 -9.977593e-001 -6.682466e-002
      outer loop
         vertex 1.254865e+003 1.050000e+002 7.558823e-001
         vertex 1.254865e+003 9.937500e+001 8.035583e+001
         vertex 1.075599e+003 1.050000e+002 1.511574e+000
      endloop
   endfacet
   facet normal -4.915338e-003 -9.979914e-001 -6.315836e-002
      outer loop
         vertex 1.075599e+003 1.050000e+002 1.511574e+000
         vertex 1.254865e+003 9.937500e+001 8.035583e+001
         vertex 1.075599e+003 9.625000e+001 1.483284e+002
      endloop
   endfacet
   facet normal -2.869987e-003 -9.983253e-001 -5.777935e-002
      outer loop
         vertex 1.075599e+003 1.050000e+002 1.511574e+000
         vertex 1.075599e+003 9.625000e+001 1.483284e+002
         vertex 8.209825e+002 9.181244e+001 2.448713e+002
      endloop
   endfacet
   facet normal -5.322765e-003 -9.983153e-001 -5.777875e-002
      outer loop
         vertex 8.209825e+002 9.181244e+001 2.448713e+002
         vertex 1.075599e+003 9.625000e+001 1.483284e+002
         vertex 1.075599e+003 9.187499e+001 2.217367e+002
      endloop
   endfacet
   facet normal -4.967542e-003 -9.984148e-001 -5.606441e-002
      outer loop
         vertex 8.209825e+002 9.181244e+001 2.448713e+002
         vertex 1.075599e+003 9.187499e+001 2.217367e+002
         vertex 8.206570e+002 8.785638e+001 3.175549e+002
      endloop
   endfacet
   facet normal -7.253896e-003 -9.983032e-001 -5.777670e-002
      outer loop
         vertex 8.206570e+002 8.785638e+001 3.175549e+002
         vertex 1.075599e+003 9.187499e+001 2.217367e+002
         vertex 1.075599e+003 8.749999e+001 2.951450e+002
      endloop
   endfacet
   facet normal -6.769144e-003 -9.984048e-001 -5.605444e-002
      outer loop
         vertex 8.206570e+002 8.785638e+001 3.175549e+002
         vertex 1.075599e+003 8.749999e+001 2.951450e+002
         vertex 8.186781e+002 7.854263e+001 4.888951e+002
      endloop
   endfacet
   facet normal -1.083896e-003 9.980029e-001 -6.315918e-002
      outer loop
         vertex 1.254865e+003 1.050000e+002 7.558823e-001
         vertex 1.075599e+003 1.050000e+002 1.511574e+000
         vertex 1.075599e+003 1.093750e+002 7.491989e+001
      endloop
   endfacet
   facet normal -3.225419e-002 9.872934e-001 -1.556001e-001
      outer loop
         vertex 1.254865e+003 1.106250e+002 8.035583e+001
         vertex 1.434132e+003 1.075000e+002 1.238346e+001
         vertex 1.434132e+003 1.062500e+002 6.191826e+000
      endloop
   endfacet
   facet normal -2.366677e-004 9.984472e-001 -5.570574e-002
      outer loop
         vertex 1.075599e+003 1.050000e+002 1.511574e+000
         vertex 7.170660e+002 1.050000e+002 3.023148e+000
         vertex 8.220660e+002 1.050241e+002 3.023148e+000
      endloop
   endfacet
   facet normal -2.577674e-003 9.984233e-001 -5.607340e-002
      outer loop
         vertex 8.220660e+002 1.050241e+002 3.023148e+000
         vertex 8.216486e+002 1.143526e+002 1.743734e+002
         vertex 1.075599e+003 1.137500e+002 1.483284e+002
      endloop
   endfacet
   facet normal -3.567010e-003 9.984206e-001 -5.606881e-002
      outer loop
         vertex 1.075599e+003 1.137500e+002 1.483284e+002
         vertex 8.216486e+002 1.143526e+002 1.743734e+002
         vertex 8.209827e+002 1.181866e+002 2.448721e+002
      endloop
   endfacet
   facet normal -4.838006e-003 9.984159e-001 -5.605642e-002
      outer loop
         vertex 1.075599e+003 1.137500e+002 1.483284e+002
         vertex 8.209827e+002 1.181866e+002 2.448721e+002
         vertex 8.186781e+002 1.314574e+002 4.888951e+002
      endloop
   endfacet
   facet normal -1.063043e-003 9.983286e-001 -5.778398e-002
      outer loop
         vertex 1.075599e+003 1.050000e+002 1.511574e+000
         vertex 8.220660e+002 1.050241e+002 3.023148e+000
         vertex 1.075599e+003 1.093750e+002 7.491989e+001
      endloop
   endfacet
   facet normal -2.698258e-003 9.983255e-001 -5.778380e-002
      outer loop
         vertex 1.075599e+003 1.093750e+002 7.491989e+001
         vertex 8.220660e+002 1.050241e+002 3.023148e+000
         vertex 1.075599e+003 1.137500e+002 1.483284e+002
      endloop
   endfacet
   facet normal -5.732947e-003 9.979871e-001 -6.315809e-002
      outer loop
         vertex 1.075599e+003 1.093750e+002 7.491989e+001
         vertex 1.075599e+003 1.137500e+002 1.483284e+002
         vertex 1.254865e+003 1.106250e+002 8.035583e+001
      endloop
   endfacet
   facet normal -1.383528e-002 9.938918e-001 -1.094882e-001
      outer loop
         vertex 1.254865e+003 1.106250e+002 8.035583e+001
         vertex 1.434132e+003 1.062500e+002 6.191826e+000
         vertex 1.075599e+003 1.093750e+002 7.491989e+001
      endloop
   endfacet
   facet normal -1.099664e-002 9.883083e-001 -1.520714e-001
      outer loop
         vertex 1.075599e+003 1.093750e+002 7.491989e+001
         vertex 1.434132e+003 1.062500e+002 6.191826e+000
         vertex 1.434132e+003 1.050000e+002 0.000000e+000
      endloop
   endfacet
   facet normal -1.280946e-003 9.939848e-001 -1.095109e-001
      outer loop
         vertex 1.075599e+003 1.093750e+002 7.491989e+001
         vertex 1.434132e+003 1.050000e+002 0.000000e+000
         vertex 1.254865e+003 1.050000e+002 7.558823e-001
      endloop
   endfacet
   facet normal -6.367676e-002 9.858158e-001 -1.552821e-001
      outer loop
         vertex 1.434132e+003 1.100000e+002 2.476692e+001
         vertex 1.434132e+003 1.075000e+002 1.238346e+001
         vertex 1.254865e+003 1.162500e+002 1.599560e+002
      endloop
   endfacet
   facet normal -2.858061e-002 9.931754e-001 -1.130739e-001
      outer loop
         vertex 1.254865e+003 1.162500e+002 1.599560e+002
         vertex 1.434132e+003 1.075000e+002 1.238346e+001
         vertex 1.254865e+003 1.106250e+002 8.035583e+001
      endloop
   endfacet
   facet normal -1.306224e-002 9.976378e-001 -6.743989e-002
      outer loop
         vertex 1.254865e+003 1.162500e+002 1.599560e+002
         vertex 1.254865e+003 1.106250e+002 8.035583e+001
         vertex 1.124559e+003 1.207931e+002 2.582233e+002
      endloop
   endfacet
   facet normal -8.655136e-003 9.979266e-001 -6.377761e-002
      outer loop
         vertex 1.124559e+003 1.207931e+002 2.582233e+002
         vertex 1.254865e+003 1.106250e+002 8.035583e+001
         vertex 1.075599e+003 1.137500e+002 1.483284e+002
      endloop
   endfacet
   facet normal -8.896111e-003 9.981521e-001 -6.011111e-002
      outer loop
         vertex 1.124559e+003 1.207931e+002 2.582233e+002
         vertex 1.075599e+003 1.137500e+002 1.483284e+002
         vertex 1.075599e+003 1.225000e+002 2.951450e+002
      endloop
   endfacet
   facet normal -7.124362e-003 9.983045e-001 -5.776874e-002
      outer loop
         vertex 1.075599e+003 1.225000e+002 2.951450e+002
         vertex 1.075599e+003 1.137500e+002 1.483284e+002
         vertex 8.186781e+002 1.314574e+002 4.888951e+002
      endloop
   endfacet
   facet normal 8.399390e-002 9.943978e-001 6.417230e-002
      outer loop
         vertex 1.254865e+003 1.162500e+002 1.599560e+002
         vertex 1.124559e+003 1.207931e+002 2.582233e+002
         vertex 1.124559e+003 1.168448e+002 3.224529e+002
      endloop
   endfacet
   facet normal 1.810226e-001 9.714093e-001 1.536057e-001
      outer loop
         vertex 1.279345e+003 1.101983e+002 2.119165e+002
         vertex 1.434132e+003 1.075000e+002 3.715038e+001
         vertex 1.434132e+003 1.087500e+002 3.095875e+001
      endloop
   endfacet
   facet normal 8.126561e-002 9.948526e-001 6.053345e-002
      outer loop
         vertex 1.124559e+003 1.207931e+002 2.582233e+002
         vertex 1.075599e+003 1.225000e+002 2.951450e+002
         vertex 1.124559e+003 1.168448e+002 3.224529e+002
      endloop
   endfacet
   facet normal 7.951988e-002 9.951325e-001 5.820559e-002
      outer loop
         vertex 1.124559e+003 1.168448e+002 3.224529e+002
         vertex 1.075599e+003 1.225000e+002 2.951450e+002
         vertex 8.186781e+002 1.314574e+002 4.888951e+002
      endloop
   endfacet
   facet normal 8.183201e-002 9.949093e-001 5.881313e-002
      outer loop
         vertex 1.124559e+003 1.168448e+002 3.224529e+002
         vertex 8.186781e+002 1.314574e+002 4.888951e+002
         vertex 1.124559e+003 1.128965e+002 3.866825e+002
      endloop
   endfacet
   facet normal 7.972034e-002 9.952151e-001 5.649390e-002
      outer loop
         vertex 1.124559e+003 1.128965e+002 3.866825e+002
         vertex 8.186781e+002 1.314574e+002 4.888951e+002
         vertex 8.203432e+002 1.239423e+002 6.246514e+002
      endloop
   endfacet
   facet normal 8.070891e-002 9.951352e-001 5.649844e-002
      outer loop
         vertex 1.124559e+003 1.128965e+002 3.866825e+002
         vertex 8.203432e+002 1.239423e+002 6.246514e+002
         vertex 8.208665e+002 1.181889e+002 7.295753e+002
      endloop
   endfacet
   facet normal 8.997976e-002 9.938089e-001 6.517418e-002
      outer loop
         vertex 1.124559e+003 1.128965e+002 3.866825e+002
         vertex 1.279345e+003 1.101983e+002 2.119165e+002
         vertex 1.124559e+003 1.168448e+002 3.224529e+002
      endloop
   endfacet
   facet normal 1.307605e-001 9.853259e-001 1.097023e-001
      outer loop
         vertex 1.124559e+003 1.168448e+002 3.224529e+002
         vertex 1.279345e+003 1.101983e+002 2.119165e+002
         vertex 1.434132e+003 1.087500e+002 3.095875e+001
      endloop
   endfacet
   facet normal 1.266358e-001 9.859744e-001 1.087096e-001
      outer loop
         vertex 1.124559e+003 1.168448e+002 3.224529e+002
         vertex 1.434132e+003 1.087500e+002 3.095875e+001
         vertex 1.254865e+003 1.162500e+002 1.599560e+002
      endloop
   endfacet
   facet normal 1.589511e-001 9.753122e-001 1.532990e-001
      outer loop
         vertex 1.254865e+003 1.162500e+002 1.599560e+002
         vertex 1.434132e+003 1.087500e+002 3.095875e+001
         vertex 1.434132e+003 1.100000e+002 2.476692e+001
      endloop
   endfacet
   facet normal 8.212677e-002 9.950191e-001 5.649915e-002
      outer loop
         vertex 8.208665e+002 1.181889e+002 7.295753e+002
         vertex 8.220660e+002 1.050000e+002 9.700999e+002
         vertex 1.124559e+003 1.128965e+002 3.866825e+002
      endloop
   endfacet
   facet normal 8.658031e-002 9.945080e-001 5.880336e-002
      outer loop
         vertex 1.124559e+003 1.128965e+002 3.866825e+002
         vertex 8.220660e+002 1.050000e+002 9.700999e+002
         vertex 1.124559e+003 1.050000e+002 5.151417e+002
      endloop
   endfacet
   facet normal 9.274966e-002 9.935551e-001 6.515854e-002
      outer loop
         vertex 1.124559e+003 1.128965e+002 3.866825e+002
         vertex 1.124559e+003 1.050000e+002 5.151417e+002
         vertex 1.279345e+003 1.101983e+002 2.119165e+002
      endloop
   endfacet
   facet normal 1.006506e-001 9.925142e-001 6.917387e-002
      outer loop
         vertex 1.279345e+003 1.101983e+002 2.119165e+002
         vertex 1.124559e+003 1.050000e+002 5.151417e+002
         vertex 1.279345e+003 1.050000e+002 2.823378e+002
      endloop
   endfacet
   facet normal 1.485019e-001 9.823947e-001 1.133484e-001
      outer loop
         vertex 1.279345e+003 1.101983e+002 2.119165e+002
         vertex 1.279345e+003 1.050000e+002 2.823378e+002
         vertex 1.434132e+003 1.075000e+002 3.715038e+001
      endloop
   endfacet
   facet normal 2.106696e-001 9.655997e-001 1.524322e-001
      outer loop
         vertex 1.434132e+003 1.075000e+002 3.715038e+001
         vertex 1.279345e+003 1.050000e+002 2.823378e+002
         vertex 1.434132e+003 1.050000e+002 4.953384e+001
      endloop
   endfacet
   facet normal 0.000000e+000 0.000000e+000 -1.000000e+000
      outer loop
         vertex 6.224643e+002 5.944220e+001 3.023148e+000
         vertex 6.120660e+002 1.049759e+002 3.023148e+000
         vertex 7.170660e+002 1.050000e+002 3.023148e+000
      endloop
   endfacet
   facet normal 0.000000e+000 0.000000e+000 -1.000000e+000
      outer loop
         vertex 7.170660e+002 1.050000e+002 3.023148e+000
         vertex 8.220660e+002 1.049759e+002 3.023148e+000
         vertex 8.116677e+002 5.944220e+001 3.023148e+000
      endloop
   endfacet
   facet normal 0.000000e+000 0.000000e+000 -1.000000e+000
      outer loop
         vertex 6.515996e+002 2.290769e+001 3.023148e+000
         vertex 6.224643e+002 5.944220e+001 3.023148e+000
         vertex 6.937013e+002 2.632570e+000 3.023148e+000
      endloop
   endfacet
   facet normal 0.000000e+000 0.000000e+000 -1.000000e+000
      outer loop
         vertex 6.937013e+002 2.632570e+000 3.023148e+000
         vertex 6.224643e+002 5.944220e+001 3.023148e+000
         vertex 7.170660e+002 1.050000e+002 3.023148e+000
      endloop
   endfacet
   facet normal 0.000000e+000 0.000000e+000 -1.000000e+000
      outer loop
         vertex 6.937013e+002 2.632570e+000 3.023148e+000
         vertex 7.170660e+002 1.050000e+002 3.023148e+000
         vertex 7.404307e+002 2.632570e+000 3.023148e+000
      endloop
   endfacet
   facet normal 0.000000e+000 0.000000e+000 -1.000000e+000
      outer loop
         vertex 7.404307e+002 2.632570e+000 3.023148e+000
         vertex 7.170660e+002 1.050000e+002 3.023148e+000
         vertex 8.116677e+002 5.944220e+001 3.023148e+000
      endloop
   endfacet
   facet normal 0.000000e+000 0.000000e+000 -1.000000e+000
      outer loop
         vertex 7.404307e+002 2.632570e+000 3.023148e+000
         vertex 8.116677e+002 5.944220e+001 3.023148e+000
         vertex 7.825324e+002 2.290769e+001 3.023148e+000
      endloop
   endfacet
   facet normal 9.817801e-001 1.900207e-001 0.000000e+000
      outer loop
         vertex 8.220660e+002 1.050000e+002 9.700999e+002
         vertex 8.208665e+002 1.181889e+002 7.295753e+002
         vertex 8.116677e+002 1.505578e+002 1.503023e+003
      endloop
   endfacet
   facet normal 9.684409e-001 2.492432e-001 0.000000e+000
      outer loop
         vertex 8.116677e+002 1.505578e+002 1.503023e+003
         vertex 8.208665e+002 1.181889e+002 7.295753e+002
         vertex 8.203432e+002 1.239423e+002 6.246514e+002
      endloop
   endfacet
   facet normal 9.568446e-001 2.906003e-001 0.000000e+000
      outer loop
         vertex 8.116677e+002 1.505578e+002 1.503023e+003
         vertex 8.203432e+002 1.239423e+002 6.246514e+002
         vertex 8.186781e+002 1.314574e+002 4.888951e+002
      endloop
   endfacet
   facet normal 9.620208e-001 2.729760e-001 0.000000e+000
      outer loop
         vertex 8.186781e+002 1.314574e+002 4.888951e+002
         vertex 8.209827e+002 1.181866e+002 2.448721e+002
         vertex 8.116677e+002 1.505578e+002 3.023148e+000
      endloop
   endfacet
   facet normal 9.756958e-001 2.191292e-001 0.000000e+000
      outer loop
         vertex 8.116677e+002 1.505578e+002 3.023148e+000
         vertex 8.209827e+002 1.181866e+002 2.448721e+002
         vertex 8.216486e+002 1.143526e+002 1.743734e+002
      endloop
   endfacet
   facet normal 9.840809e-001 1.777212e-001 0.000000e+000
      outer loop
         vertex 8.116677e+002 1.505578e+002 3.023148e+000
         vertex 8.216486e+002 1.143526e+002 1.743734e+002
         vertex 8.220660e+002 1.050241e+002 3.023148e+000
      endloop
   endfacet
   facet normal 9.817753e-001 -1.900451e-001 0.000000e+000
      outer loop
         vertex 8.220660e+002 1.049759e+002 3.023148e+000
         vertex 8.209825e+002 9.181244e+001 2.448713e+002
         vertex 8.116677e+002 5.944220e+001 3.023148e+000
      endloop
   endfacet
   facet normal 9.698921e-001 -2.435351e-001 0.000000e+000
      outer loop
         vertex 8.116677e+002 5.944220e+001 3.023148e+000
         vertex 8.209825e+002 9.181244e+001 2.448713e+002
         vertex 8.206570e+002 8.785638e+001 3.175549e+002
      endloop
   endfacet
   facet normal 9.585122e-001 -2.850514e-001 0.000000e+000
      outer loop
         vertex 8.116677e+002 5.944220e+001 3.023148e+000
         vertex 8.206570e+002 8.785638e+001 3.175549e+002
         vertex 8.186781e+002 7.854263e+001 4.888951e+002
      endloop
   endfacet
   facet normal 9.770241e-001 -2.131287e-001 0.000000e+000
      outer loop
         vertex 8.208562e+002 9.181229e+001 7.295895e+002
         vertex 8.218040e+002 9.758663e+001 8.343284e+002
         vertex 8.116677e+002 5.944220e+001 1.503023e+003
      endloop
   endfacet
   facet normal 9.851885e-001 -1.714748e-001 0.000000e+000
      outer loop
         vertex 8.116677e+002 5.944220e+001 1.503023e+003
         vertex 8.218040e+002 9.758663e+001 8.343284e+002
         vertex 8.220660e+002 1.050000e+002 9.700999e+002
      endloop
   endfacet
   facet normal 9.889994e-001 -1.479198e-001 0.000000e+000
      outer loop
         vertex 8.116677e+002 5.944220e+001 1.503023e+003
         vertex 8.220660e+002 1.050000e+002 9.700999e+002
         vertex 8.220660e+002 1.050000e+002 1.503023e+003
      endloop
   endfacet
   facet normal 9.889994e-001 1.479198e-001 0.000000e+000
      outer loop
         vertex 8.220660e+002 1.050000e+002 1.503023e+003
         vertex 8.220660e+002 1.050000e+002 9.700999e+002
         vertex 8.116677e+002 1.505578e+002 1.503023e+003
      endloop
   endfacet
   facet normal -9.851885e-001 -1.714748e-001 0.000000e+000
      outer loop
         vertex 6.120660e+002 1.050000e+002 9.700999e+002
         vertex 6.123281e+002 9.758663e+001 8.343284e+002
         vertex 6.224643e+002 5.944220e+001 1.503023e+003
      endloop
   endfacet
   facet normal -9.770241e-001 -2.131287e-001 0.000000e+000
      outer loop
         vertex 6.224643e+002 5.944220e+001 1.503023e+003
         vertex 6.123281e+002 9.758663e+001 8.343284e+002
         vertex 6.132759e+002 9.181229e+001 7.295895e+002
      endloop
   endfacet
   facet normal -9.620060e-001 -2.730281e-001 0.000000e+000
      outer loop
         vertex 6.224643e+002 5.944220e+001 1.503023e+003
         vertex 6.132759e+002 9.181229e+001 7.295895e+002
         vertex 6.154540e+002 7.854263e+001 4.888951e+002
      endloop
   endfacet
   facet normal -9.585122e-001 -2.850514e-001 0.000000e+000
      outer loop
         vertex 6.154540e+002 7.854263e+001 4.888951e+002
         vertex 6.134750e+002 8.785638e+001 3.175549e+002
         vertex 6.224643e+002 5.944220e+001 3.023148e+000
      endloop
   endfacet
   facet normal -9.698921e-001 -2.435351e-001 0.000000e+000
      outer loop
         vertex 6.224643e+002 5.944220e+001 3.023148e+000
         vertex 6.134750e+002 8.785638e+001 3.175549e+002
         vertex 6.131494e+002 9.181244e+001 2.448713e+002
      endloop
   endfacet
   facet normal -9.817753e-001 -1.900451e-001 0.000000e+000
      outer loop
         vertex 6.224643e+002 5.944220e+001 3.023148e+000
         vertex 6.131494e+002 9.181244e+001 2.448713e+002
         vertex 6.120660e+002 1.049759e+002 3.023148e+000
      endloop
   endfacet
   facet normal -9.840809e-001 1.777212e-001 0.000000e+000
      outer loop
         vertex 6.120660e+002 1.050241e+002 3.023148e+000
         vertex 6.124833e+002 1.143526e+002 1.743734e+002
         vertex 6.224643e+002 1.505578e+002 3.023148e+000
      endloop
   endfacet
   facet normal -9.756958e-001 2.191292e-001 0.000000e+000
      outer loop
         vertex 6.224643e+002 1.505578e+002 3.023148e+000
         vertex 6.124833e+002 1.143526e+002 1.743734e+002
         vertex 6.131492e+002 1.181866e+002 2.448721e+002
      endloop
   endfacet
   facet normal -9.620208e-001 2.729760e-001 0.000000e+000
      outer loop
         vertex 6.224643e+002 1.505578e+002 3.023148e+000
         vertex 6.131492e+002 1.181866e+002 2.448721e+002
         vertex 6.154540e+002 1.314574e+002 4.888951e+002
      endloop
   endfacet
   facet normal -9.684409e-001 2.492432e-001 0.000000e+000
      outer loop
         vertex 6.137888e+002 1.239423e+002 6.246514e+002
         vertex 6.132655e+002 1.181889e+002 7.295753e+002
         vertex 6.224643e+002 1.505578e+002 1.503023e+003
      endloop
   endfacet
   facet normal -9.817801e-001 1.900207e-001 0.000000e+000
      outer loop
         vertex 6.224643e+002 1.505578e+002 1.503023e+003
         vertex 6.132655e+002 1.181889e+002 7.295753e+002
         vertex 6.120660e+002 1.050000e+002 9.700999e+002
      endloop
   endfacet
   facet normal -9.889994e-001 1.479198e-001 0.000000e+000
      outer loop
         vertex 6.224643e+002 1.505578e+002 1.503023e+003
         vertex 6.120660e+002 1.050000e+002 9.700999e+002
         vertex 6.120660e+002 1.050000e+002 1.503023e+003
      endloop
   endfacet
   facet normal -9.889994e-001 -1.479198e-001 0.000000e+000
      outer loop
         vertex 6.120660e+002 1.050000e+002 1.503023e+003
         vertex 6.120660e+002 1.050000e+002 9.700999e+002
         vertex 6.224643e+002 5.944220e+001 1.503023e+003
      endloop
   endfacet
   facet normal -9.270998e-001 -3.748145e-001 0.000000e+000
      outer loop
         vertex 6.154540e+002 7.854263e+001 4.888951e+002
         vertex 6.224643e+002 5.944220e+001 3.023148e+000
         vertex 6.224643e+002 5.944220e+001 1.503023e+003
      endloop
   endfacet
   facet normal -8.268776e-001 -5.623819e-001 0.000000e+000
      outer loop
         vertex 6.224643e+002 5.944220e+001 1.503023e+003
         vertex 6.224643e+002 5.944220e+001 3.023148e+000
         vertex 6.515996e+002 2.290769e+001 3.023148e+000
      endloop
   endfacet
   facet normal -7.322794e-001 -6.810043e-001 0.000000e+000
      outer loop
         vertex 6.224643e+002 5.944220e+001 1.503023e+003
         vertex 6.515996e+002 2.290769e+001 3.023148e+000
         vertex 6.515996e+002 2.290769e+001 1.503023e+003
      endloop
   endfacet
   facet normal -5.009826e-001 -8.654574e-001 0.000000e+000
      outer loop
         vertex 6.515996e+002 2.290769e+001 1.503023e+003
         vertex 6.515996e+002 2.290769e+001 3.023148e+000
         vertex 6.937013e+002 2.632570e+000 3.023148e+000
      endloop
   endfacet
   facet normal -3.642842e-001 -9.312879e-001 0.000000e+000
      outer loop
         vertex 6.515996e+002 2.290769e+001 1.503023e+003
         vertex 6.937013e+002 2.632570e+000 3.023148e+000
         vertex 6.937013e+002 2.632570e+000 1.503023e+003
      endloop
   endfacet
   facet normal -7.586192e-002 -9.971184e-001 0.000000e+000
      outer loop
         vertex 6.937013e+002 2.632570e+000 1.503023e+003
         vertex 6.937013e+002 2.632570e+000 3.023148e+000
         vertex 7.404307e+002 2.632570e+000 3.023148e+000
      endloop
   endfacet
   facet normal 7.586192e-002 -9.971184e-001 0.000000e+000
      outer loop
         vertex 6.937013e+002 2.632570e+000 1.503023e+003
         vertex 7.404307e+002 2.632570e+000 3.023148e+000
         vertex 7.404307e+002 2.632570e+000 1.503023e+003
      endloop
   endfacet
   facet normal 3.642842e-001 -9.312879e-001 0.000000e+000
      outer loop
         vertex 7.404307e+002 2.632570e+000 1.503023e+003
         vertex 7.404307e+002 2.632570e+000 3.023148e+000
         vertex 7.825324e+002 2.290769e+001 3.023148e+000
      endloop
   endfacet
   facet normal 5.009826e-001 -8.654574e-001 0.000000e+000
      outer loop
         vertex 7.404307e+002 2.632570e+000 1.503023e+003
         vertex 7.825324e+002 2.290769e+001 3.023148e+000
         vertex 7.825324e+002 2.290769e+001 1.503023e+003
      endloop
   endfacet
   facet normal 7.322794e-001 -6.810043e-001 0.000000e+000
      outer loop
         vertex 7.825324e+002 2.290769e+001 1.503023e+003
         vertex 7.825324e+002 2.290769e+001 3.023148e+000
         vertex 8.116677e+002 5.944220e+001 3.023148e+000
      endloop
   endfacet
   facet normal 8.268777e-001 -5.623819e-001 0.000000e+000
      outer loop
         vertex 7.825324e+002 2.290769e+001 1.503023e+003
         vertex 8.116677e+002 5.944220e+001 3.023148e+000
         vertex 8.116677e+002 5.944220e+001 1.503023e+003
      endloop
   endfacet
   facet normal 9.270998e-001 -3.748145e-001 0.000000e+000
      outer loop
         vertex 8.116677e+002 5.944220e+001 1.503023e+003
         vertex 8.116677e+002 5.944220e+001 3.023148e+000
         vertex 8.186781e+002 7.854263e+001 4.888951e+002
      endloop
   endfacet
   facet normal 9.620060e-001 -2.730281e-001 0.000000e+000
      outer loop
         vertex 8.116677e+002 5.944220e+001 1.503023e+003
         vertex 8.186781e+002 7.854263e+001 4.888951e+002
         vertex 8.208562e+002 9.181229e+001 7.295895e+002
      endloop
   endfacet
   facet normal 9.270998e-001 3.748145e-001 0.000000e+000
      outer loop
         vertex 8.186781e+002 1.314574e+002 4.888951e+002
         vertex 8.116677e+002 1.505578e+002 3.023148e+000
         vertex 8.116677e+002 1.505578e+002 1.503023e+003
      endloop
   endfacet
   facet normal 8.268776e-001 5.623819e-001 0.000000e+000
      outer loop
         vertex 8.116677e+002 1.505578e+002 1.503023e+003
         vertex 8.116677e+002 1.505578e+002 3.023148e+000
         vertex 7.825324e+002 1.870923e+002 3.023148e+000
      endloop
   endfacet
   facet normal 7.322794e-001 6.810043e-001 0.000000e+000
      outer loop
         vertex 8.116677e+002 1.505578e+002 1.503023e+003
         vertex 7.825324e+002 1.870923e+002 3.023148e+000
         vertex 7.825324e+002 1.870923e+002 1.503023e+003
      endloop
   endfacet
   facet normal 5.009826e-001 8.654574e-001 0.000000e+000
      outer loop
         vertex 7.825324e+002 1.870923e+002 1.503023e+003
         vertex 7.825324e+002 1.870923e+002 3.023148e+000
         vertex 7.404307e+002 2.073674e+002 3.023148e+000
      endloop
   endfacet
   facet normal 3.642842e-001 9.312879e-001 0.000000e+000
      outer loop
         vertex 7.825324e+002 1.870923e+002 1.503023e+003
         vertex 7.404307e+002 2.073674e+002 3.023148e+000
         vertex 7.404307e+002 2.073674e+002 1.503023e+003
      endloop
   endfacet
   facet normal 7.586192e-002 9.971184e-001 0.000000e+000
      outer loop
         vertex 7.404307e+002 2.073674e+002 1.503023e+003
         vertex 7.404307e+002 2.073674e+002 3.023148e+000
         vertex 6.937013e+002 2.073674e+002 3.023148e+000
      endloop
   endfacet
   facet normal -7.586192e-002 9.971184e-001 0.000000e+000
      outer loop
         vertex 7.404307e+002 2.073674e+002 1.503023e+003
         vertex 6.937013e+002 2.073674e+002 3.023148e+000
         vertex 6.937013e+002 2.073674e+002 1.503023e+003
      endloop
   endfacet
   facet normal -3.642842e-001 9.312879e-001 0.000000e+000
      outer loop
         vertex 6.937013e+002 2.073674e+002 1.503023e+003
         vertex 6.937013e+002 2.073674e+002 3.023148e+000
         vertex 6.515996e+002 1.870923e+002 3.023148e+000
      endloop
   endfacet
   facet normal -5.009826e-001 8.654574e-001 0.000000e+000
      outer loop
         vertex 6.937013e+002 2.073674e+002 1.503023e+003
         vertex 6.515996e+002 1.870923e+002 3.023148e+000
         vertex 6.515996e+002 1.870923e+002 1.503023e+003
      endloop
   endfacet
   facet normal -7.322794e-001 6.810043e-001 0.000000e+000
      outer loop
         vertex 6.515996e+002 1.870923e+002 1.503023e+003
         vertex 6.515996e+002 1.870923e+002 3.023148e+000
         vertex 6.224643e+002 1.505578e+002 3.023148e+000
      endloop
   endfacet
   facet normal -8.268777e-001 5.623819e-001 0.000000e+000
      outer loop
         vertex 6.515996e+002 1.870923e+002 1.503023e+003
         vertex 6.224643e+002 1.505578e+002 3.023148e+000
         vertex 6.224643e+002 1.505578e+002 1.503023e+003
      endloop
   endfacet
   facet normal -9.270998e-001 3.748145e-001 0.000000e+000
      outer loop
         vertex 6.224643e+002 1.505578e+002 1.503023e+003
         vertex 6.224643e+002 1.505578e+002 3.023148e+000
         vertex 6.154540e+002 1.314574e+002 4.888951e+002
      endloop
   endfacet
   facet normal -9.568446e-001 2.906003e-001 0.000000e+000
      outer loop
         vertex 6.224643e+002 1.505578e+002 1.503023e+003
         vertex 6.154540e+002 1.314574e+002 4.888951e+002
         vertex 6.137888e+002 1.239423e+002 6.246514e+002
      endloop
   endfacet
   facet normal -8.084410e-001 5.498427e-001 2.099909e-001
      outer loop
         vertex 6.515996e+002 1.870923e+002 1.503023e+003
         vertex 6.224643e+002 1.505578e+002 1.503023e+003
         vertex 7.170660e+002 1.050000e+002 2.003023e+003
      endloop
   endfacet
   facet normal -4.898124e-001 8.461605e-001 2.099909e-001
      outer loop
         vertex 6.515996e+002 1.870923e+002 1.503023e+003
         vertex 7.170660e+002 1.050000e+002 2.003023e+003
         vertex 6.937013e+002 2.073674e+002 1.503023e+003
      endloop
   endfacet
   facet normal -7.417046e-002 9.748859e-001 2.099910e-001
      outer loop
         vertex 7.404307e+002 2.073674e+002 1.503023e+003
         vertex 6.937013e+002 2.073674e+002 1.503023e+003
         vertex 7.170660e+002 1.050000e+002 2.003023e+003
      endloop
   endfacet
   facet normal 3.561619e-001 9.105232e-001 2.099909e-001
      outer loop
         vertex 7.825324e+002 1.870923e+002 1.503023e+003
         vertex 7.404307e+002 2.073674e+002 1.503023e+003
         vertex 7.170660e+002 1.050000e+002 2.003023e+003
      endloop
   endfacet
   facet normal 7.159520e-001 6.658202e-001 2.099909e-001
      outer loop
         vertex 8.116677e+002 1.505578e+002 1.503023e+003
         vertex 7.825324e+002 1.870923e+002 1.503023e+003
         vertex 7.170660e+002 1.050000e+002 2.003023e+003
      endloop
   endfacet
   facet normal 9.339390e-001 2.892434e-001 2.099909e-001
      outer loop
         vertex 8.220660e+002 1.050000e+002 1.503023e+003
         vertex 8.116677e+002 1.505578e+002 1.503023e+003
         vertex 7.170660e+002 1.050000e+002 2.003023e+003
      endloop
   endfacet
   facet normal 9.669480e-001 -1.446217e-001 2.099910e-001
      outer loop
         vertex 8.116677e+002 5.944220e+001 1.503023e+003
         vertex 8.220660e+002 1.050000e+002 1.503023e+003
         vertex 7.170660e+002 1.050000e+002 2.003023e+003
      endloop
   endfacet
   facet normal 8.084410e-001 -5.498427e-001 2.099909e-001
      outer loop
         vertex 7.825324e+002 2.290769e+001 1.503023e+003
         vertex 8.116677e+002 5.944220e+001 1.503023e+003
         vertex 7.170660e+002 1.050000e+002 2.003023e+003
      endloop
   endfacet
   facet normal 4.898124e-001 -8.461605e-001 2.099909e-001
      outer loop
         vertex 7.404307e+002 2.632570e+000 1.503023e+003
         vertex 7.825324e+002 2.290769e+001 1.503023e+003
         vertex 7.170660e+002 1.050000e+002 2.003023e+003
      endloop
   endfacet
   facet normal 7.417046e-002 -9.748859e-001 2.099910e-001
      outer loop
         vertex 6.937013e+002 2.632570e+000 1.503023e+003
         vertex 7.404307e+002 2.632570e+000 1.503023e+003
         vertex 7.170660e+002 1.050000e+002 2.003023e+003
      endloop
   endfacet
   facet normal -3.561619e-001 -9.105232e-001 2.099909e-001
      outer loop
         vertex 6.515996e+002 2.290769e+001 1.503023e+003
         vertex 6.937013e+002 2.632570e+000 1.503023e+003
         vertex 7.170660e+002 1.050000e+002 2.003023e+003
      endloop
   endfacet
   facet normal -7.159520e-001 -6.658202e-001 2.099909e-001
      outer loop
         vertex 6.224643e+002 5.944220e+001 1.503023e+003
         vertex 6.515996e+002 2.290769e+001 1.503023e+003
         vertex 7.170660e+002 1.050000e+002 2.003023e+003
      endloop
   endfacet
   facet normal -9.339390e-001 -2.892434e-001 2.099909e-001
      outer loop
         vertex 6.120660e+002 1.050000e+002 1.503023e+003
         vertex 6.224643e+002 5.944220e+001 1.503023e+003
         vertex 7.170660e+002 1.050000e+002 2.003023e+003
      endloop
   endfacet
   facet normal -9.669480e-001 1.446217e-001 2.099910e-001
      outer loop
         vertex 6.224643e+002 1.505578e+002 1.503023e+003
         vertex 6.120660e+002 1.050000e+002 1.503023e+003
         vertex 7.170660e+002 1.050000e+002 2.003023e+003
      endloop
   endfacet
   facet normal -1.000000e+000 0.000000e+000 0.000000e+000
      outer loop
         vertex 0.000000e+000 1.062500e+002 6.191826e+000
         vertex 0.000000e+000 1.050000e+002 0.000000e+000
         vertex 0.000000e+000 1.025000e+002 1.238346e+001
      endloop
   endfacet
   facet normal -1.000000e+000 0.000000e+000 0.000000e+000
      outer loop
         vertex 0.000000e+000 1.050000e+002 4.953384e+001
         vertex 0.000000e+000 1.075000e+002 3.715038e+001
         vertex 0.000000e+000 1.037500e+002 4.334202e+001
      endloop
   endfacet
   facet normal -1.000000e+000 0.000000e+000 0.000000e+000
      outer loop
         vertex 0.000000e+000 1.037500e+002 4.334202e+001
         vertex 0.000000e+000 1.075000e+002 3.715038e+001
         vertex 0.000000e+000 1.025000e+002 3.715038e+001
      endloop
   endfacet
   facet normal -1.000000e+000 0.000000e+000 0.000000e+000
      outer loop
         vertex 0.000000e+000 1.025000e+002 3.715038e+001
         vertex 0.000000e+000 1.075000e+002 3.715038e+001
         vertex 0.000000e+000 9.999999e+001 2.476692e+001
      endloop
   endfacet
   facet normal -1.000000e+000 0.000000e+000 0.000000e+000
      outer loop
         vertex 0.000000e+000 9.999999e+001 2.476692e+001
         vertex 0.000000e+000 1.075000e+002 3.715038e+001
         vertex 0.000000e+000 1.087500e+002 3.095875e+001
      endloop
   endfacet
   facet normal -1.000000e+000 0.000000e+000 0.000000e+000
      outer loop
         vertex 0.000000e+000 9.999999e+001 2.476692e+001
         vertex 0.000000e+000 1.087500e+002 3.095875e+001
         vertex 0.000000e+000 1.012500e+002 1.857529e+001
      endloop
   endfacet
   facet normal -1.000000e+000 0.000000e+000 0.000000e+000
      outer loop
         vertex 0.000000e+000 1.012500e+002 1.857529e+001
         vertex 0.000000e+000 1.087500e+002 3.095875e+001
         vertex 0.000000e+000 1.100000e+002 2.476692e+001
      endloop
   endfacet
   facet normal -1.000000e+000 0.000000e+000 0.000000e+000
      outer loop
         vertex 0.000000e+000 1.012500e+002 1.857529e+001
         vertex 0.000000e+000 1.100000e+002 2.476692e+001
         vertex 0.000000e+000 1.025000e+002 1.238346e+001
      endloop
   endfacet
   facet normal -1.000000e+000 0.000000e+000 0.000000e+000
      outer loop
         vertex 0.000000e+000 1.025000e+002 1.238346e+001
         vertex 0.000000e+000 1.100000e+002 2.476692e+001
         vertex 0.000000e+000 1.075000e+002 1.238346e+001
      endloop
   endfacet
   facet normal -1.000000e+000 0.000000e+000 0.000000e+000
      outer loop
         vertex 0.000000e+000 1.025000e+002 1.238346e+001
         vertex 0.000000e+000 1.075000e+002 1.238346e+001
         vertex 0.000000e+000 1.062500e+002 6.191826e+000
      endloop
   endfacet
   facet normal -2.194338e-001 -9.637080e-001 1.520380e-001
      outer loop
         vertex 1.547867e+002 1.050000e+002 2.823378e+002
         vertex 0.000000e+000 1.050000e+002 4.953384e+001
         vertex 0.000000e+000 1.037500e+002 4.334202e+001
      endloop
   endfacet
   facet normal -7.783694e-002 -9.953985e-001 5.588628e-002
      outer loop
         vertex 6.154540e+002 7.854263e+001 4.888951e+002
         vertex 6.132759e+002 9.181229e+001 7.295895e+002
         vertex 3.585330e+002 8.749999e+001 2.951450e+002
      endloop
   endfacet
   facet normal -8.143297e-002 -9.949778e-001 5.820546e-002
      outer loop
         vertex 3.585330e+002 8.749999e+001 2.951450e+002
         vertex 6.132759e+002 9.181229e+001 7.295895e+002
         vertex 3.095734e+002 9.710346e+001 3.866825e+002
      endloop
   endfacet
   facet normal -8.219010e-002 -9.947769e-001 6.052880e-002
      outer loop
         vertex 3.585330e+002 8.749999e+001 2.951450e+002
         vertex 3.095734e+002 9.710346e+001 3.866825e+002
         vertex 3.095734e+002 8.920694e+001 2.582233e+002
      endloop
   endfacet
   facet normal -8.569311e-002 -9.941859e-001 6.520122e-002
      outer loop
         vertex 3.095734e+002 8.920694e+001 2.582233e+002
         vertex 3.095734e+002 9.710346e+001 3.866825e+002
         vertex 1.547867e+002 9.460347e+001 1.414951e+002
      endloop
   endfacet
   facet normal -9.702580e-002 -9.931486e-001 6.512931e-002
      outer loop
         vertex 3.095734e+002 1.050000e+002 5.151417e+002
         vertex 1.547867e+002 1.050000e+002 2.823378e+002
         vertex 3.095734e+002 1.010517e+002 4.509121e+002
      endloop
   endfacet
   facet normal -1.537485e-001 -9.820811e-001 1.089873e-001
      outer loop
         vertex 3.095734e+002 1.010517e+002 4.509121e+002
         vertex 1.547867e+002 1.050000e+002 2.823378e+002
         vertex 0.000000e+000 1.037500e+002 4.334202e+001
      endloop
   endfacet
   facet normal -1.504066e-001 -9.825936e-001 1.090310e-001
      outer loop
         vertex 3.095734e+002 1.010517e+002 4.509121e+002
         vertex 0.000000e+000 1.037500e+002 4.334202e+001
         vertex 1.547867e+002 9.980173e+001 2.119165e+002
      endloop
   endfacet
   facet normal -1.987351e-001 -9.680536e-001 1.528939e-001
      outer loop
         vertex 1.547867e+002 9.980173e+001 2.119165e+002
         vertex 0.000000e+000 1.037500e+002 4.334202e+001
         vertex 0.000000e+000 1.025000e+002 3.715038e+001
      endloop
   endfacet
   facet normal -1.719779e-001 -9.729995e-001 1.539335e-001
      outer loop
         vertex 1.547867e+002 9.980173e+001 2.119165e+002
         vertex 0.000000e+000 1.025000e+002 3.715038e+001
         vertex 0.000000e+000 9.999999e+001 2.476692e+001
      endloop
   endfacet
   facet normal -1.237552e-001 -9.857396e-001 1.140271e-001
      outer loop
         vertex 0.000000e+000 9.999999e+001 2.476692e+001
         vertex 1.547867e+002 9.460347e+001 1.414951e+002
         vertex 1.547867e+002 9.980173e+001 2.119165e+002
      endloop
   endfacet
   facet normal -9.209304e-002 -9.933407e-001 6.923288e-002
      outer loop
         vertex 1.547867e+002 9.980173e+001 2.119165e+002
         vertex 1.547867e+002 9.460347e+001 1.414951e+002
         vertex 3.095734e+002 9.710346e+001 3.866825e+002
      endloop
   endfacet
   facet normal -9.182689e-002 -9.936405e-001 6.516380e-002
      outer loop
         vertex 1.547867e+002 9.980173e+001 2.119165e+002
         vertex 3.095734e+002 9.710346e+001 3.866825e+002
         vertex 3.095734e+002 1.010517e+002 4.509121e+002
      endloop
   endfacet
   facet normal -8.466861e-002 -9.946723e-001 5.880794e-002
      outer loop
         vertex 3.095734e+002 1.010517e+002 4.509121e+002
         vertex 3.095734e+002 9.710346e+001 3.866825e+002
         vertex 6.132759e+002 9.181229e+001 7.295895e+002
      endloop
   endfacet
   facet normal -8.651568e-002 -9.945139e-001 5.879818e-002
      outer loop
         vertex 3.095734e+002 1.010517e+002 4.509121e+002
         vertex 6.132759e+002 9.181229e+001 7.295895e+002
         vertex 3.095734e+002 1.050000e+002 5.151417e+002
      endloop
   endfacet
   facet normal -8.341966e-002 -9.949120e-001 5.649106e-002
      outer loop
         vertex 3.095734e+002 1.050000e+002 5.151417e+002
         vertex 6.132759e+002 9.181229e+001 7.295895e+002
         vertex 6.123281e+002 9.758663e+001 8.343284e+002
      endloop
   endfacet
   facet normal -8.440822e-002 -9.948286e-001 5.649146e-002
      outer loop
         vertex 3.095734e+002 1.050000e+002 5.151417e+002
         vertex 6.123281e+002 9.758663e+001 8.343284e+002
         vertex 6.120660e+002 1.050000e+002 9.700999e+002
      endloop
   endfacet
   facet normal 6.769144e-003 -9.984048e-001 -5.605444e-002
      outer loop
         vertex 6.154540e+002 7.854263e+001 4.888951e+002
         vertex 3.585330e+002 8.749999e+001 2.951450e+002
         vertex 6.134750e+002 8.785638e+001 3.175549e+002
      endloop
   endfacet
   facet normal 7.253896e-003 -9.983032e-001 -5.777671e-002
      outer loop
         vertex 6.134750e+002 8.785638e+001 3.175549e+002
         vertex 3.585330e+002 8.749999e+001 2.951450e+002
         vertex 3.585330e+002 9.187499e+001 2.217367e+002
      endloop
   endfacet
   facet normal 4.967543e-003 -9.984148e-001 -5.606441e-002
      outer loop
         vertex 6.134750e+002 8.785638e+001 3.175549e+002
         vertex 3.585330e+002 9.187499e+001 2.217367e+002
         vertex 6.131494e+002 9.181244e+001 2.448713e+002
      endloop
   endfacet
   facet normal 2.864600e-003 -9.984227e-001 -5.607064e-002
      outer loop
         vertex 6.120660e+002 1.049759e+002 3.023148e+000
         vertex 6.131494e+002 9.181244e+001 2.448713e+002
         vertex 3.585330e+002 9.625000e+001 1.483284e+002
      endloop
   endfacet
   facet normal 5.322765e-003 -9.983153e-001 -5.777875e-002
      outer loop
         vertex 3.585330e+002 9.625000e+001 1.483284e+002
         vertex 6.131494e+002 9.181244e+001 2.448713e+002
         vertex 3.585330e+002 9.187499e+001 2.217367e+002
      endloop
   endfacet
   facet normal 7.368116e-003 -9.979764e-001 -6.315744e-002
      outer loop
         vertex 3.585330e+002 9.625000e+001 1.483284e+002
         vertex 3.585330e+002 9.187499e+001 2.217367e+002
         vertex 1.792665e+002 9.937500e+001 8.035583e+001
      endloop
   endfacet
   facet normal 3.446836e-002 -9.934070e-001 -1.093364e-001
      outer loop
         vertex 1.792665e+002 9.937500e+001 8.035583e+001
         vertex 3.585330e+002 9.187499e+001 2.217367e+002
         vertex 0.000000e+000 1.012500e+002 1.857529e+001
      endloop
   endfacet
   facet normal 5.124275e-002 -9.865170e-001 -1.554300e-001
      outer loop
         vertex 1.792665e+002 9.937500e+001 8.035583e+001
         vertex 0.000000e+000 1.012500e+002 1.857529e+001
         vertex 0.000000e+000 1.025000e+002 1.238346e+001
      endloop
   endfacet
   facet normal 7.392818e-002 -9.849589e-001 -1.561751e-001
      outer loop
         vertex 0.000000e+000 9.999999e+001 2.476692e+001
         vertex 0.000000e+000 1.012500e+002 1.857529e+001
         vertex 1.547867e+002 9.460347e+001 1.414951e+002
      endloop
   endfacet
   facet normal 3.827499e-002 -9.931540e-001 -1.103637e-001
      outer loop
         vertex 1.547867e+002 9.460347e+001 1.414951e+002
         vertex 0.000000e+000 1.012500e+002 1.857529e+001
         vertex 3.585330e+002 9.187499e+001 2.217367e+002
      endloop
   endfacet
   facet normal 1.327410e-002 -9.978089e-001 -6.481647e-002
      outer loop
         vertex 1.547867e+002 9.460347e+001 1.414951e+002
         vertex 3.585330e+002 9.187499e+001 2.217367e+002
         vertex 3.095734e+002 8.920694e+001 2.582233e+002
      endloop
   endfacet
   facet normal 9.713653e-003 -9.981444e-001 -6.011065e-002
      outer loop
         vertex 3.095734e+002 8.920694e+001 2.582233e+002
         vertex 3.585330e+002 9.187499e+001 2.217367e+002
         vertex 3.585330e+002 8.749999e+001 2.951450e+002
      endloop
   endfacet
   facet normal 2.366677e-004 -9.984472e-001 -5.570575e-002
      outer loop
         vertex 7.170660e+002 1.050000e+002 3.023148e+000
         vertex 6.120660e+002 1.049759e+002 3.023148e+000
         vertex 3.585330e+002 1.050000e+002 1.511574e+000
      endloop
   endfacet
   facet normal 1.880644e-003 -9.983274e-001 -5.778391e-002
      outer loop
         vertex 3.585330e+002 1.050000e+002 1.511574e+000
         vertex 6.120660e+002 1.049759e+002 3.023148e+000
         vertex 3.585330e+002 9.625000e+001 1.483284e+002
      endloop
   endfacet
   facet normal 1.901506e-003 -9.980016e-001 -6.315912e-002
      outer loop
         vertex 3.585330e+002 1.050000e+002 1.511574e+000
         vertex 3.585330e+002 9.625000e+001 1.483284e+002
         vertex 1.792665e+002 1.050000e+002 7.558823e-001
      endloop
   endfacet
   facet normal 4.930792e-003 -9.977526e-001 -6.682424e-002
      outer loop
         vertex 1.792665e+002 1.050000e+002 7.558823e-001
         vertex 3.585330e+002 9.625000e+001 1.483284e+002
         vertex 1.792665e+002 9.937500e+001 8.035583e+001
      endloop
   endfacet
   facet normal 3.496435e-003 -9.935701e-001 -1.131646e-001
      outer loop
         vertex 1.792665e+002 1.050000e+002 7.558823e-001
         vertex 1.792665e+002 9.937500e+001 8.035583e+001
         vertex 0.000000e+000 1.050000e+002 0.000000e+000
      endloop
   endfacet
   facet normal 2.272299e-002 -9.875513e-001 -1.556470e-001
      outer loop
         vertex 0.000000e+000 1.050000e+002 0.000000e+000
         vertex 1.792665e+002 9.937500e+001 8.035583e+001
         vertex 0.000000e+000 1.025000e+002 1.238346e+001
      endloop
   endfacet
   facet normal 1.760073e-003 9.984251e-001 -5.607352e-002
      outer loop
         vertex 6.124833e+002 1.143526e+002 1.743734e+002
         vertex 6.120660e+002 1.050241e+002 3.023148e+000
         vertex 3.585330e+002 1.093750e+002 7.491989e+001
      endloop
   endfacet
   facet normal 6.140300e-003 9.983106e-001 -5.777846e-002
      outer loop
         vertex 3.585330e+002 1.137500e+002 1.483284e+002
         vertex 3.585330e+002 1.225000e+002 2.951450e+002
         vertex 6.131492e+002 1.181866e+002 2.448721e+002
      endloop
   endfacet
   facet normal 6.473113e-003 9.984066e-001 -5.605586e-002
      outer loop
         vertex 6.131492e+002 1.181866e+002 2.448721e+002
         vertex 3.585330e+002 1.225000e+002 2.951450e+002
         vertex 6.154540e+002 1.314574e+002 4.888951e+002
      endloop
   endfacet
   facet normal 3.004962e-002 9.879257e-001 -1.519862e-001
      outer loop
         vertex 3.585330e+002 1.093750e+002 7.491989e+001
         vertex 0.000000e+000 1.062500e+002 6.191826e+000
         vertex 0.000000e+000 1.075000e+002 1.238346e+001
      endloop
   endfacet
   facet normal 3.567010e-003 9.984206e-001 -5.606881e-002
      outer loop
         vertex 6.131492e+002 1.181866e+002 2.448721e+002
         vertex 6.124833e+002 1.143526e+002 1.743734e+002
         vertex 3.585330e+002 1.137500e+002 1.483284e+002
      endloop
   endfacet
   facet normal 3.400671e-003 9.983234e-001 -5.778196e-002
      outer loop
         vertex 3.585330e+002 1.137500e+002 1.483284e+002
         vertex 6.124833e+002 1.143526e+002 1.743734e+002
         vertex 3.585330e+002 1.093750e+002 7.491989e+001
      endloop
   endfacet
   facet normal 5.732947e-003 9.979871e-001 -6.315809e-002
      outer loop
         vertex 3.585330e+002 1.137500e+002 1.483284e+002
         vertex 3.585330e+002 1.093750e+002 7.491989e+001
         vertex 1.792665e+002 1.106250e+002 8.035583e+001
      endloop
   endfacet
   facet normal 2.335111e-002 9.937200e-001 -1.094320e-001
      outer loop
         vertex 1.792665e+002 1.106250e+002 8.035583e+001
         vertex 3.585330e+002 1.093750e+002 7.491989e+001
         vertex 0.000000e+000 1.075000e+002 1.238346e+001
      endloop
   endfacet
   facet normal 1.018940e-002 9.877526e-001 -1.556954e-001
      outer loop
         vertex 0.000000e+000 1.050000e+002 0.000000e+000
         vertex 0.000000e+000 1.062500e+002 6.191826e+000
         vertex 1.792665e+002 1.050000e+002 7.558823e-001
      endloop
   endfacet
   facet normal 1.081551e-002 9.939289e-001 -1.094918e-001
      outer loop
         vertex 1.792665e+002 1.050000e+002 7.558823e-001
         vertex 0.000000e+000 1.062500e+002 6.191826e+000
         vertex 3.585330e+002 1.093750e+002 7.491989e+001
      endloop
   endfacet
   facet normal 1.083896e-003 9.980029e-001 -6.315918e-002
      outer loop
         vertex 1.792665e+002 1.050000e+002 7.558823e-001
         vertex 3.585330e+002 1.093750e+002 7.491989e+001
         vertex 3.585330e+002 1.050000e+002 1.511574e+000
      endloop
   endfacet
   facet normal 1.063043e-003 9.983286e-001 -5.778398e-002
      outer loop
         vertex 3.585330e+002 1.050000e+002 1.511574e+000
         vertex 3.585330e+002 1.093750e+002 7.491989e+001
         vertex 6.120660e+002 1.050241e+002 3.023148e+000
      endloop
   endfacet
   facet normal 2.366677e-004 9.984472e-001 -5.570574e-002
      outer loop
         vertex 3.585330e+002 1.050000e+002 1.511574e+000
         vertex 6.120660e+002 1.050241e+002 3.023148e+000
         vertex 7.170660e+002 1.050000e+002 3.023148e+000
      endloop
   endfacet
   facet normal 6.066474e-002 9.860017e-001 -1.553077e-001
      outer loop
         vertex 0.000000e+000 1.075000e+002 1.238346e+001
         vertex 0.000000e+000 1.100000e+002 2.476692e+001
         vertex 1.792665e+002 1.106250e+002 8.035583e+001
      endloop
   endfacet
   facet normal 4.748078e-002 9.924765e-001 -1.128535e-001
      outer loop
         vertex 1.792665e+002 1.106250e+002 8.035583e+001
         vertex 0.000000e+000 1.100000e+002 2.476692e+001
         vertex 1.792665e+002 1.162500e+002 1.599560e+002
      endloop
   endfacet
   facet normal 1.095777e-002 9.977049e-001 -6.682084e-002
      outer loop
         vertex 1.792665e+002 1.106250e+002 8.035583e+001
         vertex 1.792665e+002 1.162500e+002 1.599560e+002
         vertex 3.585330e+002 1.137500e+002 1.483284e+002
      endloop
   endfacet
   facet normal 1.166831e-002 9.978961e-001 -6.377538e-002
      outer loop
         vertex 3.585330e+002 1.137500e+002 1.483284e+002
         vertex 1.792665e+002 1.162500e+002 1.599560e+002
         vertex 3.095734e+002 1.207931e+002 2.582233e+002
      endloop
   endfacet
   facet normal 8.896111e-003 9.981521e-001 -6.011111e-002
      outer loop
         vertex 3.585330e+002 1.137500e+002 1.483284e+002
         vertex 3.095734e+002 1.207931e+002 2.582233e+002
         vertex 3.585330e+002 1.225000e+002 2.951450e+002
      endloop
   endfacet
   facet normal -7.951988e-002 9.951325e-001 5.820559e-002
      outer loop
         vertex 3.095734e+002 1.168448e+002 3.224529e+002
         vertex 6.154540e+002 1.314574e+002 4.888951e+002
         vertex 3.585330e+002 1.225000e+002 2.951450e+002
      endloop
   endfacet
   facet normal -7.879566e-002 9.952885e-001 5.649844e-002
      outer loop
         vertex 6.154540e+002 1.314574e+002 4.888951e+002
         vertex 3.095734e+002 1.168448e+002 3.224529e+002
         vertex 6.137888e+002 1.239423e+002 6.246514e+002
      endloop
   endfacet
   facet normal -8.070891e-002 9.951352e-001 5.649844e-002
      outer loop
         vertex 6.132655e+002 1.181889e+002 7.295753e+002
         vertex 6.137888e+002 1.239423e+002 6.246514e+002
         vertex 3.095734e+002 1.128965e+002 3.866825e+002
      endloop
   endfacet
   facet normal -8.239130e-002 9.948629e-001 5.881735e-002
      outer loop
         vertex 3.095734e+002 1.128965e+002 3.866825e+002
         vertex 6.137888e+002 1.239423e+002 6.246514e+002
         vertex 3.095734e+002 1.168448e+002 3.224529e+002
      endloop
   endfacet
   facet normal -8.997977e-002 9.938089e-001 6.517418e-002
      outer loop
         vertex 3.095734e+002 1.128965e+002 3.866825e+002
         vertex 3.095734e+002 1.168448e+002 3.224529e+002
         vertex 1.547867e+002 1.101983e+002 2.119165e+002
      endloop
   endfacet
   facet normal -1.307605e-001 9.853259e-001 1.097023e-001
      outer loop
         vertex 1.547867e+002 1.101983e+002 2.119165e+002
         vertex 3.095734e+002 1.168448e+002 3.224529e+002
         vertex 0.000000e+000 1.087500e+002 3.095875e+001
      endloop
   endfacet
   facet normal -1.810226e-001 9.714093e-001 1.536057e-001
      outer loop
         vertex 1.547867e+002 1.101983e+002 2.119165e+002
         vertex 0.000000e+000 1.087500e+002 3.095875e+001
         vertex 0.000000e+000 1.075000e+002 3.715038e+001
      endloop
   endfacet
   facet normal -1.589511e-001 9.753122e-001 1.532990e-001
      outer loop
         vertex 0.000000e+000 1.100000e+002 2.476692e+001
         vertex 0.000000e+000 1.087500e+002 3.095875e+001
         vertex 1.792665e+002 1.162500e+002 1.599560e+002
      endloop
   endfacet
   facet normal -1.266358e-001 9.859744e-001 1.087095e-001
      outer loop
         vertex 1.792665e+002 1.162500e+002 1.599560e+002
         vertex 0.000000e+000 1.087500e+002 3.095875e+001
         vertex 3.095734e+002 1.168448e+002 3.224529e+002
      endloop
   endfacet
   facet normal -8.399391e-002 9.943978e-001 6.417230e-002
      outer loop
         vertex 1.792665e+002 1.162500e+002 1.599560e+002
         vertex 3.095734e+002 1.168448e+002 3.224529e+002
         vertex 3.095734e+002 1.207931e+002 2.582233e+002
      endloop
   endfacet
   facet normal -8.126561e-002 9.948525e-001 6.053346e-002
      outer loop
         vertex 3.095734e+002 1.207931e+002 2.582233e+002
         vertex 3.095734e+002 1.168448e+002 3.224529e+002
         vertex 3.585330e+002 1.225000e+002 2.951450e+002
      endloop
   endfacet
   facet normal -8.397420e-002 9.948655e-001 5.648965e-002
      outer loop
         vertex 6.120660e+002 1.050000e+002 9.700999e+002
         vertex 6.132655e+002 1.181889e+002 7.295753e+002
         vertex 3.095734e+002 1.050000e+002 5.151417e+002
      endloop
   endfacet
   facet normal -8.559200e-002 9.945935e-001 5.880313e-002
      outer loop
         vertex 3.095734e+002 1.050000e+002 5.151417e+002
         vertex 6.132655e+002 1.181889e+002 7.295753e+002
         vertex 3.095734e+002 1.128965e+002 3.866825e+002
      endloop
   endfacet
   facet normal -9.610295e-002 9.932380e-001 6.513484e-002
      outer loop
         vertex 3.095734e+002 1.050000e+002 5.151417e+002
         vertex 3.095734e+002 1.128965e+002 3.866825e+002
         vertex 1.547867e+002 1.050000e+002 2.823378e+002
      endloop
   endfacet
   facet normal -9.880597e-002 9.926987e-001 6.918538e-002
      outer loop
         vertex 1.547867e+002 1.050000e+002 2.823378e+002
         vertex 3.095734e+002 1.128965e+002 3.866825e+002
         vertex 1.547867e+002 1.101983e+002 2.119165e+002
      endloop
   endfacet
   facet normal -1.660084e-001 9.796699e-001 1.126412e-001
      outer loop
         vertex 1.547867e+002 1.050000e+002 2.823378e+002
         vertex 1.547867e+002 1.101983e+002 2.119165e+002
         vertex 0.000000e+000 1.050000e+002 4.953384e+001
      endloop
   endfacet
   facet normal -2.073788e-001 9.662991e-001 1.525129e-001
      outer loop
         vertex 0.000000e+000 1.050000e+002 4.953384e+001
         vertex 1.547867e+002 1.101983e+002 2.119165e+002
         vertex 0.000000e+000 1.075000e+002 3.715038e+001
      endloop
   endfacet
endsolid